<svg width="110" height="136" viewBox="0 0 110 136" fill="none" xmlns="http://www.w3.org/2000/svg">
<g clip-path="url(#clip0_3719_6655)">
<g clip-path="url(#clip1_3719_6655)">
<path d="M110 0H0V136H110V0Z" fill="#FFFEFE"/>
<path d="M62.7161 122.892V125.455C62.7161 125.724 62.6606 126 62.3203 126C61.98 126 61.9245 125.731 61.9245 125.455V122.823C61.9245 122.692 61.9383 122.444 61.737 122.444C61.6467 122.444 61.5911 122.52 61.5217 122.575L61.1745 122.892V125.455C61.1745 125.724 61.1189 126 60.7786 126C60.4383 126 60.3828 125.731 60.3828 125.455V122.134C60.3828 121.859 60.4592 121.576 60.7995 121.576C61.0008 121.576 61.1328 121.707 61.1814 121.886L61.2508 121.838C61.4592 121.679 61.5842 121.576 61.855 121.576C62.1606 121.576 62.4036 121.721 62.5842 121.969L62.6536 121.9C62.9036 121.652 63.0008 121.569 63.3481 121.569C63.612 121.569 63.855 121.686 64.0078 121.886C64.2092 122.141 64.1883 122.369 64.1953 122.672L64.2786 125.393C64.2856 125.669 64.2439 125.986 63.8897 125.986C63.5703 125.986 63.5008 125.717 63.4939 125.455L63.4106 122.851C63.4036 122.713 63.4453 122.431 63.23 122.431C63.112 122.431 62.9661 122.63 62.8967 122.699L62.7161 122.892Z" fill="#282828"/>
<path d="M67.6665 122.355C67.4373 122.355 67.1179 122.306 67.1179 121.962C67.1179 121.624 67.3957 121.569 67.6665 121.569H68.7568C69.1734 121.569 69.4651 121.611 69.7846 121.921C70.0901 122.224 70.1318 122.465 70.1387 122.858L70.2221 125.531C70.229 125.759 70.1179 125.993 69.847 125.993C69.6387 125.993 69.4304 125.821 69.4443 125.6L68.8957 125.876C68.6734 125.993 68.6665 125.993 68.4095 125.993H67.6457C67.2915 125.993 67.0345 125.952 66.7429 125.717C66.4095 125.449 66.3262 125.159 66.3262 124.746V124.401C66.3262 124.022 66.4165 123.788 66.7151 123.526C66.9859 123.285 67.2915 123.23 67.6387 123.23H69.3401V123.051C69.3401 122.458 69.2082 122.362 68.6387 122.362H67.6665V122.355ZM67.6595 124.015C67.4443 124.015 67.1318 124.07 67.1318 124.36V124.884C67.1318 125.145 67.4512 125.2 67.6457 125.2H68.5207L69.3957 124.746V124.573C69.3957 124.139 69.2707 124.008 68.8332 124.008H67.6595V124.015Z" fill="#282828"/>
<path d="M72.2922 123.402C72.2922 122.92 72.3824 122.679 72.7644 122.369L73.3547 121.887C73.7297 121.583 73.9172 121.576 74.3824 121.576H75.6394C75.9033 121.576 76.188 121.632 76.188 121.969C76.188 122.314 75.8755 122.362 75.6394 122.362H74.2366C74.0769 122.362 73.9241 122.445 73.7783 122.562L73.2991 122.961C73.1741 123.058 73.0838 123.141 73.0838 123.299V124.278C73.0838 124.436 73.1741 124.519 73.2991 124.615L73.7783 125.015C73.9172 125.132 74.0769 125.215 74.2366 125.215H75.6324C75.8616 125.215 76.1811 125.263 76.1811 125.607C76.1811 125.945 75.9033 126 75.6324 126H74.3755C73.9102 126 73.7227 125.993 73.3477 125.69L72.7574 125.208C72.3755 124.898 72.2852 124.656 72.2852 124.174V123.402H72.2922Z" fill="#282828"/>
<path d="M80.4574 122.355C80.3741 122.355 80.2908 122.382 80.2074 122.43L79.0338 123.161V125.448C79.0338 125.717 78.9783 125.993 78.638 125.993C78.2977 125.993 78.2422 125.724 78.2422 125.448V120.48C78.2422 120.212 78.2977 119.936 78.638 119.936C78.9783 119.936 79.0338 120.205 79.0338 120.48V122.244L79.6797 121.824C79.888 121.693 80.1241 121.562 80.388 121.562H80.9158C81.0755 121.562 81.3533 121.562 81.6866 121.852C82.0408 122.155 82.0269 122.492 82.0408 122.92L82.1241 125.4C82.1311 125.676 82.0894 125.993 81.7352 125.993C81.4158 125.993 81.3463 125.724 81.3394 125.462L81.2561 123.03C81.2422 122.651 81.263 122.355 80.8186 122.355H80.4574Z" fill="#282828"/>
<path d="M86.5562 125.208H87.1534C87.4173 125.208 87.702 125.263 87.702 125.6C87.702 125.945 87.3895 125.993 87.1534 125.993H85.1326C84.9034 125.993 84.584 125.945 84.584 125.6C84.584 125.263 84.8617 125.208 85.1326 125.208H85.7645V122.362H85.1326C84.9034 122.362 84.584 122.314 84.584 121.969C84.584 121.631 84.8617 121.576 85.1326 121.576H85.9659C86.4242 121.576 86.5562 121.659 86.5562 122.128V125.208ZM85.3617 120.315C85.3617 120.04 85.5215 119.943 85.7367 119.943H86.1951C86.4103 119.943 86.5701 120.033 86.5701 120.315V120.694C86.5701 120.97 86.4103 121.066 86.1951 121.066H85.7367C85.5215 121.066 85.3617 120.977 85.3617 120.694V120.315Z" fill="#282828"/>
<path d="M90.9518 123.161V125.449C90.9518 125.717 90.8963 125.993 90.556 125.993C90.2157 125.993 90.1602 125.724 90.1602 125.449V122.148C90.1602 121.859 90.1949 121.562 90.556 121.562C90.9102 121.562 90.9518 121.859 90.9518 122.134V122.224V122.238L91.5977 121.817C91.806 121.686 92.0282 121.556 92.2852 121.556H92.8754C93.181 121.556 93.3685 121.638 93.6116 121.845C93.9657 122.148 93.9518 122.486 93.9657 122.913L94.0491 125.393C94.056 125.669 94.0143 125.986 93.6602 125.986C93.3407 125.986 93.2713 125.717 93.2643 125.456L93.181 123.023C93.1671 122.541 93.1254 122.348 92.6463 122.348H92.3824C92.2991 122.348 92.2157 122.375 92.1324 122.424L90.9518 123.161Z" fill="#282828"/>
<path d="M97.5686 125.993C97.2353 125.993 97.1033 125.993 96.8603 125.779L96.52 125.483C96.2075 125.207 96.1172 125.021 96.1172 124.594V123.078C96.1172 122.658 96.1728 122.417 96.5061 122.134L96.7839 121.893C97.1589 121.576 97.3394 121.562 97.6589 121.562H98.3881C98.7769 121.562 98.9575 121.604 99.2631 121.852L99.5825 122.107C99.9436 122.396 99.9992 122.699 99.9992 123.133V123.767C99.9992 124.222 99.9228 124.353 99.4506 124.353H96.9019V124.615C96.9019 124.691 96.9575 124.787 97.02 124.842L97.2214 125.056C97.3256 125.173 97.4853 125.201 97.7492 125.201H99.4506C99.7144 125.201 99.9992 125.256 99.9992 125.593C99.9992 125.938 99.6867 125.986 99.4506 125.986H97.5686V125.993ZM96.9019 123.561H99.2006V123.085C99.2006 122.94 99.2075 122.816 99.1033 122.713L98.7978 122.451C98.7006 122.362 98.5408 122.355 98.4158 122.355H97.7492C97.6033 122.355 97.4783 122.355 97.3464 122.444L97.0756 122.644C96.9783 122.72 96.9089 122.775 96.9089 123.002V123.561H96.9019Z" fill="#282828"/>
<path d="M59.0417 121.569H10V125.993H59.0417V121.569Z" fill="#282828"/>
<path d="M19.5069 119.943V109.924H19.3819L16.9792 119.943H15.5347L13.1111 109.924H12.9861V119.943H10V103.006H14.6389L16.1042 110.517H16.25L17.8819 103.006H22.5L22.5208 119.943H19.5069Z" fill="#282828"/>
<path d="M28.8472 118.42L28.5763 114.858H26.9861L26.7361 118.42H23.4375L25.1319 103.013H30.6458L32.2361 118.42H28.8472ZM27.8888 106.224H27.6597L27.1388 111.743H28.4375L27.8888 106.224Z" fill="#282828"/>
<path d="M34.3181 118.42V106.266H31.832V103.006H40.082V106.266H37.5958V118.42H34.3181Z" fill="#282828"/>
<path d="M49.0074 112.453C49.0491 112.929 49.0699 113.37 49.0699 113.79C49.0699 114.576 49.0213 115.265 48.931 115.843C48.8407 116.429 48.6463 116.911 48.3546 117.29C48.0629 117.669 47.6463 117.952 47.1116 118.138C46.5768 118.324 45.8685 118.414 44.9935 118.414C43.9518 118.414 43.1532 118.324 42.5977 118.145C42.0491 117.966 41.6393 117.649 41.3754 117.187C41.2366 116.98 41.1185 116.725 41.0213 116.436C40.9241 116.147 40.8407 115.761 40.7782 115.272C40.7157 114.789 40.6671 114.169 40.6393 113.425C40.6116 112.674 40.5977 111.723 40.5977 110.572C40.5977 109.415 40.6116 108.478 40.6393 107.761C40.6671 107.037 40.7157 106.452 40.7782 105.99C40.8407 105.528 40.9241 105.17 41.0213 104.908C41.1185 104.647 41.2366 104.405 41.3754 104.178C41.6532 103.73 42.056 103.427 42.5907 103.255C43.1185 103.082 43.8893 103 44.8893 103C45.7782 103 46.5004 103.075 47.0421 103.234C47.5838 103.392 48.0004 103.647 48.2991 103.999C48.5907 104.35 48.7852 104.812 48.8824 105.37C48.9796 105.928 49.0282 106.603 49.0282 107.389C49.0282 107.575 49.0213 107.775 49.0143 108.002C49.0074 108.223 48.9935 108.464 48.9796 108.712H45.9102C45.9102 108.319 45.9032 107.988 45.8963 107.727C45.8893 107.465 45.8754 107.251 45.8616 107.079C45.8477 106.907 45.8268 106.776 45.806 106.672C45.7852 106.576 45.7643 106.493 45.7504 106.424C45.6949 106.176 45.4032 106.052 44.8754 106.052C44.6116 106.052 44.4171 106.08 44.2991 106.142C44.181 106.204 44.0977 106.293 44.056 106.424C44.0143 106.528 43.9796 106.652 43.9588 106.789C43.9379 106.927 43.9171 107.134 43.8963 107.416C43.8754 107.699 43.8616 108.092 43.8546 108.588C43.8477 109.084 43.8407 109.739 43.8407 110.538C43.8407 111.365 43.8407 112.026 43.8546 112.522C43.8616 113.018 43.8754 113.418 43.8963 113.7C43.9171 113.99 43.9379 114.203 43.9588 114.348C43.9796 114.493 44.0143 114.617 44.056 114.72C44.0977 114.851 44.181 114.941 44.306 114.996C44.431 115.051 44.6532 115.072 44.9727 115.072C45.3893 115.072 45.6393 114.961 45.7227 114.734C45.7782 114.603 45.8199 114.465 45.8477 114.321C45.8754 114.176 45.8963 114.017 45.9102 113.838C45.9241 113.659 45.931 113.459 45.9449 113.225C45.9518 112.998 45.9588 112.729 45.9588 112.426H49.0074V112.453Z" fill="#282828"/>
<path d="M55.6734 118.42V112.088H53.6248V118.42H50.2637V103.013H53.6248V108.98H55.6734V103.013H59.0345V118.42H55.6734Z" fill="#282828"/>
<path d="M69.8819 118.42V109.18H69.7569L67.3542 118.42H65.9097L63.4861 109.18H63.3611V118.42H60.375V103.013H65.0139L66.4792 109.711H66.625L68.2569 103.013H72.875L72.8958 118.42H69.8819Z" fill="#282828"/>
<path d="M81.7915 117.201C81.6526 117.435 81.4859 117.628 81.2984 117.78C81.1109 117.931 80.8748 118.055 80.597 118.152C80.3193 118.248 79.9929 118.317 79.6179 118.358C79.2429 118.4 78.8054 118.42 78.2984 118.42C77.2845 118.42 76.5137 118.331 75.9929 118.152C75.472 117.973 75.0693 117.656 74.7915 117.194C74.6526 116.973 74.5346 116.725 74.4373 116.457C74.3401 116.188 74.2568 115.823 74.1943 115.361C74.1318 114.899 74.0832 114.3 74.0554 113.563C74.0276 112.819 74.0137 111.868 74.0137 110.696C74.0137 109.532 74.0276 108.581 74.0554 107.844C74.0832 107.106 74.1318 106.514 74.1943 106.052C74.2568 105.591 74.3401 105.232 74.4373 104.97C74.5346 104.709 74.6526 104.461 74.7915 104.219C74.9304 103.999 75.097 103.806 75.2845 103.647C75.472 103.489 75.7082 103.365 75.9859 103.262C76.2637 103.165 76.597 103.096 76.979 103.055C77.3609 103.014 77.8054 102.993 78.3054 102.993C79.3054 102.993 80.0693 103.082 80.5901 103.268C81.1109 103.455 81.5137 103.765 81.7915 104.212C81.9304 104.447 82.0484 104.695 82.1457 104.964C82.2429 105.225 82.3262 105.584 82.3887 106.045C82.4512 106.507 82.4998 107.1 82.5276 107.837C82.5554 108.574 82.5693 109.525 82.5693 110.689C82.5693 111.854 82.5554 112.812 82.5276 113.556C82.4998 114.3 82.4512 114.899 82.3887 115.354C82.3262 115.816 82.2429 116.181 82.1457 116.45C82.0484 116.732 81.9304 116.973 81.7915 117.201ZM79.1179 114.741C79.1457 114.651 79.1734 114.534 79.2012 114.39C79.229 114.245 79.2498 114.031 79.2637 113.742C79.2776 113.452 79.2846 113.06 79.2984 112.571C79.3054 112.081 79.3123 111.434 79.3123 110.634C79.3123 109.807 79.3054 109.146 79.2984 108.65C79.2915 108.154 79.2776 107.754 79.2637 107.458C79.2498 107.162 79.229 106.941 79.2012 106.796C79.1734 106.652 79.1457 106.535 79.1179 106.445C79.0623 106.314 78.979 106.218 78.8679 106.162C78.7568 106.1 78.5693 106.073 78.3054 106.073C78.0415 106.073 77.847 106.1 77.729 106.162C77.6109 106.224 77.5276 106.314 77.4859 106.445C77.4443 106.535 77.4096 106.652 77.3887 106.796C77.3679 106.941 77.347 107.162 77.3262 107.458C77.3054 107.754 77.2915 108.147 77.2846 108.65C77.2776 109.146 77.2707 109.814 77.2707 110.634C77.2707 111.434 77.2707 112.081 77.2846 112.571C77.2915 113.06 77.3054 113.452 77.3262 113.742C77.347 114.031 77.3679 114.245 77.3887 114.39C77.4096 114.534 77.4443 114.651 77.4859 114.741C77.5276 114.872 77.6109 114.961 77.729 115.017C77.847 115.072 78.0415 115.092 78.3054 115.092C78.5693 115.092 78.7568 115.065 78.8679 115.017C78.979 114.961 79.0623 114.872 79.1179 114.741Z" fill="#282828"/>
<path d="M84.9522 118.42L83.0703 103.013H86.6189L87.4939 113.866H87.7231L88.5564 103.013H92.0425L90.0564 118.42H84.9522Z" fill="#282828"/>
<path d="M93.0137 118.42V103.013H99.9998V106.272H96.2914V108.98H99.9998V112.095H96.2914V115.003H99.9998V118.42H93.0137Z" fill="#282828"/>
<path fill-rule="evenodd" clip-rule="evenodd" d="M12.5625 99.2307H97.375C98.7847 99.2307 99.9305 98.0938 99.9375 96.695V12.5426C99.9375 11.1369 98.7917 10 97.375 10H12.5625C11.1458 10 10 11.1369 10 12.5426V96.6881C10 98.0938 11.1458 99.2307 12.5625 99.2307ZM95.5903 54.6154C95.5903 76.8773 77.4019 94.9242 54.9653 94.9242C32.5287 94.9242 14.3403 76.8773 14.3403 54.6154C14.3403 32.3534 32.5287 14.3065 54.9653 14.3065C77.4019 14.3065 95.5903 32.3534 95.5903 54.6154ZM18.7992 88.7366H13.3681V90.8864H18.7992V96.2775H20.9658V90.8864H26.3958V88.7366H20.9658V83.3511H18.7992V88.7366ZM89.3354 18.3856H83.9028V20.5354H89.3354V25.9178H91.5021V20.5354H96.9306V18.3856H91.5021V12.9914H89.3354V18.3856ZM96.9097 96.0818L91.0625 94.5246L85.2222 92.9673L89.493 88.7297L93.7639 84.4921L95.3333 90.287L96.9097 96.0818ZM20.5208 14.9955L13.2569 13.0524L15.2083 20.2667L17.1667 27.4809L22.4792 22.2029L27.7917 16.9317L20.5208 14.9955Z" fill="#282828"/>
<mask id="mask0_3719_6655" style="mask-type:luminance" maskUnits="userSpaceOnUse" x="16" y="16" width="78" height="77">
<path d="M54.9651 92.5817C76.0976 92.5817 93.2289 75.5837 93.2289 54.6155C93.2289 33.6474 76.0976 16.6494 54.9651 16.6494C33.8325 16.6494 16.7012 33.6474 16.7012 54.6155C16.7012 75.5837 33.8325 92.5817 54.9651 92.5817Z" fill="white"/>
</mask>
<g mask="url(#mask0_3719_6655)">
<path d="M52.8462 26.8243C50.6239 27.9199 48.5267 28.9052 46.4781 29.9732C35.6309 35.6371 25.7351 42.5826 17.3323 51.4988C12.8878 56.2187 8.95725 61.3245 6.61697 67.4156C5.7767 69.6068 5.45031 71.9909 4.88781 74.2923C4.8392 74.499 4.80447 74.7057 4.7628 74.9124C4.66558 74.9331 4.56836 74.9468 4.47114 74.9675C3.7142 72.5008 2.81836 70.0616 2.22808 67.5534C-1.02886 53.8484 0.755862 40.798 7.53363 28.4091C9.7003 24.4471 13.242 22.5109 17.4364 21.4773C21.8323 20.3955 26.2976 20.4438 30.7559 20.9261C38.1656 21.7254 45.2559 23.7994 52.1726 26.5004C52.3462 26.5693 52.5198 26.6658 52.8462 26.8243Z" fill="#282828"/>
<path d="M105.387 34.4316C106.053 36.485 106.81 38.5176 107.359 40.5985C110.998 54.3655 109.421 67.5538 102.852 80.2046C100.574 84.5868 96.8936 86.9089 92.2339 87.9631C87.7686 88.976 83.2617 88.9071 78.7339 88.4041C71.4631 87.5911 64.5394 85.517 57.7547 82.9056C57.5811 82.8367 57.4144 82.7402 57.0742 82.5749C57.5117 82.3613 57.8311 82.189 58.1575 82.0374C70.6089 76.2564 81.9144 68.8423 91.5325 59.0235C96.3936 54.0624 100.602 48.6396 103.276 42.1695C104.241 39.8406 104.907 37.4358 105.046 34.9071C105.053 34.7624 105.095 34.6177 105.123 34.473C105.213 34.4661 105.303 34.4454 105.387 34.4316Z" fill="#282828"/>
<path d="M80.3596 66.7902C80.5054 64.4061 80.6859 62.1392 80.7762 59.8723C81.3179 46.6771 79.9984 33.7094 75.6373 21.162C73.7276 15.6703 71.2623 10.4405 67.3804 6.01691C66.0332 4.48035 64.3596 3.2263 62.8318 1.84822C62.6998 1.73108 62.5471 1.62772 62.4082 1.51748C62.4359 1.44168 62.4637 1.359 62.4915 1.2832C64.3457 1.65529 66.2207 1.9309 68.0471 2.40634C82.2484 6.07203 93.2415 14.1062 101.166 26.3573C103.895 30.5743 103.985 34.9428 102.541 39.5249C100.978 44.4653 98.2068 48.7305 94.9984 52.7545C90.8596 57.9498 86.0054 62.4148 80.7971 66.5285C80.6998 66.5974 80.5887 66.6524 80.3596 66.7902Z" fill="#282828"/>
<path d="M29.3598 42.7617C29.2487 47.7986 28.9501 52.8355 29.0612 57.8655C29.3182 69.2002 31.0195 80.3006 35.2487 90.9118C37.3807 96.2588 40.089 101.288 44.3182 105.347C45.2904 106.277 46.3876 107.083 47.6168 108.103C46.457 107.924 45.4709 107.814 44.4987 107.614C28.6793 104.293 16.5542 95.7696 8.15149 82.0646C5.79038 78.2059 6.05426 74.0993 7.33204 69.9926C8.90843 64.9212 11.7834 60.5527 15.0959 56.4529C19.1793 51.3885 23.9432 46.9993 29.0473 42.9753C29.1793 42.8651 29.3182 42.7893 29.3598 42.7617Z" fill="#282828"/>
<path d="M31.6719 70.4951C33.9775 72.0041 36.0955 73.4649 38.29 74.8154C48.1233 80.8858 58.5331 85.654 69.8178 88.417C76.1372 89.9605 82.533 90.7736 89.0539 90.0983C92.0886 89.7813 94.9983 89.0234 97.8455 87.7831C97.1303 88.6375 96.4428 89.5057 95.6997 90.3326C87.0053 99.9722 76.2344 105.905 63.3594 107.917C60.2205 108.406 56.9844 108.489 53.7969 108.427C50.8108 108.365 48.3386 106.787 46.1442 104.858C42.2553 101.447 39.7205 97.0989 37.6442 92.4686C34.7344 85.9641 32.9844 79.1288 31.9219 72.1075C31.8386 71.6251 31.7692 71.1359 31.6719 70.4951Z" fill="#282828"/>
<path d="M12.291 21.6519C15.2493 17.6004 18.8118 14.169 22.8673 11.2405C32.0826 4.58439 42.409 1.16675 53.791 0.822238C57.7423 0.705101 61.041 2.10385 63.916 4.68086C67.6173 7.99514 70.0896 12.157 72.1104 16.5944C74.9576 22.8715 76.7215 29.4725 77.8187 36.2596C77.9576 37.1071 78.0965 37.9546 78.2632 38.9675C76.2285 37.6239 74.3743 36.3492 72.4715 35.1571C63.0618 29.2521 53.1173 24.5046 42.3465 21.5693C35.7701 19.7777 29.0965 18.7235 22.2493 19.1507C19.0757 19.3505 15.9923 19.9982 13.0687 21.2936C12.8048 21.4177 12.5479 21.5348 12.291 21.6519Z" fill="#282828"/>
</g>
<path d="M54.9654 34.2129L64.2085 50.0953L73.4446 65.9708H54.9654H36.4863L45.7293 50.0953L54.9654 34.2129Z" stroke="#282828" stroke-width="5" stroke-miterlimit="10"/>
<path d="M59.3548 53.8301H50.584V55.4011H59.3548V53.8301Z" fill="#282828"/>
<path d="M55.7592 58.9721V50.2695H54.1758V58.9721H55.7592Z" fill="#282828"/>
</g>
</g>
<defs>
<clipPath id="clip0_3719_6655">
<rect width="110" height="136" fill="white"/>
</clipPath>
<clipPath id="clip1_3719_6655">
<rect width="110" height="136" fill="white"/>
</clipPath>
</defs>
</svg>
