<svg width="60" height="60" viewBox="0 0 60 60" fill="none" xmlns="http://www.w3.org/2000/svg">
<g clip-path="url(#clip0_3719_24209)">
<path fill-rule="evenodd" clip-rule="evenodd" d="M1.70952 60H58.2904C59.231 60 59.9954 59.2356 60 58.295V1.70965C60 0.764478 59.2356 0 58.2904 0H1.70952C0.76442 0 0 0.764478 0 1.70965V58.2904C0 59.2356 0.76442 60 1.70952 60ZM57.0998 30C57.0998 44.9692 44.9658 57.1042 29.9976 57.1042C15.0296 57.1042 2.89552 44.9692 2.89552 30C2.89552 15.0307 15.0296 2.89576 29.9976 2.89576C44.9658 2.89576 57.0998 15.0307 57.0998 30ZM5.87018 52.9436H2.24694V54.3892H5.87018V58.0142H7.31558V54.3892H10.9382V52.9436H7.31558V49.3224H5.87018V52.9436ZM52.927 5.6386H49.3028V7.08416H52.927V10.7034H54.3724V7.08416H57.994V5.6386H54.3724V2.01146H52.927V5.6386ZM57.98 57.8826L54.0792 56.8356L50.183 55.7884L53.0322 52.939L55.8814 50.0896L56.9284 53.986L57.98 57.8826ZM7.01876 3.35908L2.1728 2.0525L3.47464 6.90348L4.7811 11.7544L8.32522 8.2054L11.8694 4.661L7.01876 3.35908Z" fill="#FFFEFE"/>
<mask id="mask0_3719_24209" style="mask-type:luminance" maskUnits="userSpaceOnUse" x="4" y="4" width="52" height="52">
<path d="M29.9976 55.5286C44.0958 55.5286 55.5246 44.0988 55.5246 29.9996C55.5246 15.9004 44.0958 4.4707 29.9976 4.4707C15.8995 4.4707 4.4707 15.9004 4.4707 29.9996C4.4707 44.0988 15.8995 55.5286 29.9976 55.5286Z" fill="white"/>
</mask>
<g mask="url(#mask0_3719_24209)">
<path d="M28.5844 11.313C27.1018 12.0497 25.7028 12.7122 24.336 13.4304C17.0995 17.2388 10.4977 21.9091 4.89198 27.9045C1.92697 31.0783 -0.69522 34.5115 -2.2565 38.6073C-2.81706 40.0805 -3.03482 41.6837 -3.41008 43.2311C-3.4425 43.3701 -3.46568 43.5091 -3.49346 43.6481C-3.55832 43.6621 -3.62318 43.6713 -3.68804 43.6851C-4.19302 42.0265 -4.79066 40.3863 -5.18446 38.6999C-7.35726 29.4845 -6.16662 20.7091 -1.64496 12.3786C-0.199508 9.71453 2.16324 8.41261 4.96148 7.71763C7.89408 6.99021 10.873 7.02265 13.8473 7.34697C18.7905 7.88441 23.5206 9.27901 28.135 11.0952C28.2508 11.1416 28.3666 11.2064 28.5844 11.313Z" fill="#FFFEFE"/>
<path d="M63.6351 16.4287C64.0799 17.8094 64.5849 19.1762 64.9509 20.5755C67.3785 29.8325 66.3267 38.7005 61.9441 47.2071C60.4245 50.1537 57.9691 51.7151 54.8605 52.4241C51.8815 53.1051 48.8749 53.0589 45.8543 52.7205C41.0037 52.1739 36.3847 50.7793 31.8583 49.0233C31.7425 48.9769 31.6313 48.9121 31.4043 48.8009C31.6963 48.6573 31.9093 48.5415 32.1271 48.4395C40.4337 44.5523 47.9761 39.5669 54.3925 32.9647C57.6355 29.6287 60.4431 25.9823 62.2267 21.6317C62.8707 20.0657 63.3155 18.4488 63.4081 16.7484C63.4127 16.6511 63.4405 16.5538 63.4591 16.4565C63.5193 16.4519 63.5795 16.438 63.6351 16.4287Z" fill="#FFFEFE"/>
<path d="M46.9389 38.1865C47.0361 36.5835 47.1567 35.0591 47.2169 33.5349C47.5783 24.6623 46.6979 15.9425 43.7885 7.50547C42.5145 3.81281 40.8699 0.296204 38.2801 -2.67831C37.3813 -3.71151 36.2647 -4.55477 35.2455 -5.48141C35.1575 -5.56017 35.0557 -5.62967 34.9629 -5.70379C34.9815 -5.75477 35.0001 -5.81037 35.0185 -5.86133C36.2555 -5.61113 37.5065 -5.42581 38.7249 -5.10611C48.1991 -2.64125 55.5329 2.76107 60.8189 10.9989C62.6395 13.8344 62.6999 16.7719 61.7361 19.853C60.6939 23.1749 58.8453 26.0429 56.7049 28.7487C53.9437 32.2421 50.7053 35.2445 47.2307 38.0105C47.1659 38.0569 47.0917 38.0939 46.9389 38.1865Z" fill="#FFFEFE"/>
<path d="M12.9159 22.0303C12.8418 25.4171 12.6426 28.8041 12.7167 32.1863C12.8881 39.8079 14.0232 47.2721 16.8446 54.4071C18.2669 58.0025 20.0736 61.3847 22.895 64.1137C23.5436 64.7391 24.2756 65.2813 25.0956 65.9669C24.322 65.8465 23.6642 65.7723 23.0156 65.6381C12.4619 63.4049 4.37292 57.6735 -1.23282 48.4581C-2.80798 45.8635 -2.63194 43.1021 -1.77949 40.3407C-0.727836 36.9307 1.19016 33.9933 3.40004 31.2365C6.12416 27.8311 9.3023 24.8797 12.7074 22.1739C12.7955 22.0999 12.8881 22.0489 12.9159 22.0303Z" fill="#FFFEFE"/>
<path d="M14.459 40.6782C15.9971 41.6928 17.4101 42.6752 18.8741 43.5832C25.4342 47.665 32.3788 50.8712 39.9072 52.7292C44.1232 53.767 48.39 54.3138 52.7402 53.8596C54.7648 53.6466 56.706 53.1368 58.6054 52.303C58.1282 52.8774 57.6696 53.4612 57.1738 54.0172C51.3736 60.499 44.188 64.4882 35.5986 65.8412C33.5046 66.17 31.3458 66.2258 29.2192 66.184C27.2272 66.1424 25.5778 65.0812 24.1138 63.784C21.5194 61.4906 19.8285 58.567 18.4432 55.4536C16.5021 51.0798 15.3346 46.4836 14.6258 41.7624C14.5702 41.438 14.5238 41.109 14.459 40.6782Z" fill="#FFFEFE"/>
<path d="M1.52734 7.834C3.50094 5.10966 5.87758 2.80232 8.58316 0.833216C14.731 -3.64246 21.62 -5.94052 29.2132 -6.17218C31.8494 -6.25096 34.05 -5.31042 35.968 -3.5776C38.4372 -1.34902 40.0866 1.44943 41.4346 4.43322C43.3342 8.65406 44.5108 13.0927 45.2428 17.6564C45.3356 18.2263 45.4282 18.7962 45.5394 19.4772C44.182 18.5738 42.945 17.7166 41.6756 16.9151C35.398 12.9444 28.7638 9.75214 21.5782 7.7784C17.191 6.57376 12.7388 5.86488 8.17084 6.15214C6.05364 6.2865 3.99664 6.72202 2.04622 7.59306C1.87018 7.67646 1.69876 7.75522 1.52734 7.834Z" fill="#FFFEFE"/>
</g>
<path d="M29.998 16.2812L36.1642 26.9608L42.326 37.6356H29.998H17.6699L23.8362 26.9608L29.998 16.2812Z" stroke="#FFFEFE" stroke-width="1.67416" stroke-miterlimit="10"/>
<path d="M32.9256 29.4727H27.0742V30.5291H32.9256V29.4727Z" fill="#FFFEFE"/>
<path d="M30.5269 32.9289V27.0771H29.4707V32.9289H30.5269Z" fill="#FFFEFE"/>
</g>
<defs>
<clipPath id="clip0_3719_24209">
<rect width="60" height="60" fill="white"/>
</clipPath>
</defs>
</svg>
