<svg width="67" height="60" viewBox="0 0 67 60" fill="none" xmlns="http://www.w3.org/2000/svg">
<rect width="67" height="60" rx="5" fill="#2F57BF"/>
<mask id="mask0_4444_27577" style="mask-type:alpha" maskUnits="userSpaceOnUse" x="22" y="19" width="22" height="22">
<path d="M33 35.621L27.4403 30.0597L28.5513 28.9299L32.2143 32.5929V19H33.7857V32.5929L37.4471 28.9314L38.5597 30.0597L33 35.621ZM24.5379 41C23.815 41 23.2116 40.758 22.7276 40.274C22.2425 39.789 22 39.185 22 38.4621L22 34.6546H23.5714L23.5714 38.4621C23.5714 38.7031 23.672 38.9247 23.8731 39.1269C24.0753 39.328 24.2969 39.4286 24.5379 39.4286L41.4621 39.4286C41.7031 39.4286 41.9247 39.328 42.1269 39.1269C42.328 38.9247 42.4286 38.7031 42.4286 38.4621L42.4286 34.6546H44L44 38.4621C44 39.185 43.758 39.7884 43.274 40.2724C42.789 40.7575 42.185 41 41.4621 41L24.5379 41Z" fill="black"/>
</mask>
<g mask="url(#mask0_4444_27577)">
<rect width="27" height="36" transform="matrix(-1 0 0 1 47 12)" fill="white"/>
</g>
</svg>
