<svg width="27" height="36" viewBox="0 0 27 36" fill="none" xmlns="http://www.w3.org/2000/svg">
<mask id="mask0_4519_29884" style="mask-type:alpha" maskUnits="userSpaceOnUse" x="2" y="7" width="22" height="22">
<path d="M13 23.621L7.44029 18.0597L8.55129 16.9299L12.2143 20.5929L12.2143 7L13.7857 7L13.7857 20.5929L17.4471 16.9314L18.5597 18.0597L13 23.621ZM4.53786 29C3.815 29 3.21157 28.758 2.72757 28.274C2.24252 27.789 2 27.185 2 26.4621L2 22.6546H3.57143L3.57143 26.4621C3.57143 26.7031 3.672 26.9247 3.87314 27.1269C4.07533 27.328 4.2969 27.4286 4.53786 27.4286L21.4621 27.4286C21.7031 27.4286 21.9247 27.328 22.1269 27.1269C22.328 26.9247 22.4286 26.7031 22.4286 26.4621L22.4286 22.6546H24L24 26.4621C24 27.185 23.758 27.7884 23.274 28.2724C22.789 28.7575 22.185 29 21.4621 29L4.53786 29Z" fill="black"/>
</mask>
<g mask="url(#mask0_4519_29884)">
<rect width="27" height="36" transform="matrix(-1 0 0 1 27 0)" fill="white"/>
</g>
</svg>
