<svg width="257" height="256" viewBox="0 0 257 256" fill="none" xmlns="http://www.w3.org/2000/svg">
<path d="M205.3 118.784C205.3 108.032 196.596 102.4 184.82 102.4H150.516C153.076 93.184 154.1 84.48 154.1 76.8C154.1 47.104 145.908 40.96 138.74 40.96C134.132 40.96 130.548 41.472 125.94 44.032C124.404 45.056 123.892 46.08 123.38 47.616L118.26 75.264C112.628 89.6 98.804 102.4 87.54 111.104V184.32C91.636 184.32 95.732 186.368 100.852 188.928C106.484 191.488 112.116 194.56 118.26 194.56H166.9C177.14 194.56 184.82 186.368 184.82 179.2C184.82 177.664 184.82 176.64 184.308 175.616C190.452 173.056 195.06 167.936 195.06 161.28C195.06 158.208 194.548 155.648 193.524 153.088C197.62 150.528 201.204 145.92 201.204 140.8C201.204 137.728 199.668 134.656 198.132 132.096C202.228 129.024 205.3 123.904 205.3 118.784ZM194.548 118.784C194.548 125.44 187.892 125.952 186.868 129.024C185.844 132.608 190.964 133.632 190.964 139.776C190.964 145.92 183.284 145.92 182.26 149.504C181.236 153.6 184.82 154.624 184.82 160.768V161.792C183.796 166.912 176.116 167.424 174.58 169.472C173.044 172.032 174.58 173.056 174.58 178.688C174.58 181.76 170.996 183.808 166.9 183.808H118.26C114.164 183.808 110.068 181.76 104.948 179.2C100.852 177.152 96.756 175.104 92.66 174.08V120.32C105.46 110.592 121.844 96.256 127.988 78.336V77.312L132.596 51.712C134.644 51.2 136.18 51.2 138.74 51.2C139.764 51.2 143.86 57.344 143.86 76.8C143.86 84.48 142.324 92.672 139.764 102.4H138.74C135.668 102.4 133.62 104.448 133.62 107.52C133.62 110.592 135.668 112.64 138.74 112.64H184.82C189.94 112.64 194.548 115.2 194.548 118.784Z" fill="white"/>
<path d="M82.42 194.56H51.7C46.068 194.56 41.46 189.952 41.46 184.32V112.64C41.46 107.008 46.068 102.4 51.7 102.4H82.42C88.052 102.4 92.66 107.008 92.66 112.64V184.32C92.66 189.952 88.052 194.56 82.42 194.56ZM51.7 112.64V184.32H82.42V112.64H51.7Z" fill="white"/>
</svg>
